Chivo-Light.ufo
<glyph name="percent" format="1">
  <advance width="699"/>
  <unicode hex="0025"/>
  <outline>
    <contour>
      <point x="584" y="686" type="line"/>
      <point x="525" y="686" type="line"/>
      <point x="108" y="0" type="line"/>
      <point x="168" y="0" type="line"/>
    </contour>
    <contour>
      <point x="270" y="566" type="line" smooth="yes"/>
      <point x="270" y="632"/>
      <point x="225" y="686"/>
      <point x="150" y="686" type="curve" smooth="yes"/>
      <point x="75" y="686"/>
      <point x="30" y="632"/>
      <point x="30" y="566" type="curve" smooth="yes"/>
      <point x="30" y="456" type="line" smooth="yes"/>
      <point x="30" y="390"/>
      <point x="75" y="336"/>
      <point x="150" y="336" type="curve" smooth="yes"/>
      <point x="225" y="336"/>
      <point x="270" y="390"/>
      <point x="270" y="456" type="curve" smooth="yes"/>
    </contour>
    <contour>
      <point x="220" y="452" type="line" smooth="yes"/>
      <point x="220" y="413"/>
      <point x="196" y="382"/>
      <point x="150" y="382" type="curve" smooth="yes"/>
      <point x="106" y="382"/>
      <point x="80" y="413"/>
      <point x="80" y="452" type="curve" smooth="yes"/>
      <point x="80" y="570" type="line" smooth="yes"/>
      <point x="80" y="609"/>
      <point x="106" y="640"/>
      <point x="150" y="640" type="curve" smooth="yes"/>
      <point x="196" y="640"/>
      <point x="220" y="609"/>
      <point x="220" y="570" type="curve" smooth="yes"/>
    </contour>
    <contour>
      <point x="660" y="229" type="line" smooth="yes"/>
      <point x="660" y="295"/>
      <point x="615" y="349"/>
      <point x="540" y="349" type="curve" smooth="yes"/>
      <point x="465" y="349"/>
      <point x="420" y="295"/>
      <point x="420" y="229" type="curve" smooth="yes"/>
      <point x="420" y="119" type="line" smooth="yes"/>
      <point x="420" y="53"/>
      <point x="465" y="-1"/>
      <point x="540" y="-1" type="curve" smooth="yes"/>
      <point x="615" y="-1"/>
      <point x="660" y="53"/>
      <point x="660" y="119" type="curve" smooth="yes"/>
    </contour>
    <contour>
      <point x="610" y="115" type="line" smooth="yes"/>
      <point x="610" y="76"/>
      <point x="586" y="45"/>
      <point x="540" y="45" type="curve" smooth="yes"/>
      <point x="496" y="45"/>
      <point x="470" y="76"/>
      <point x="470" y="115" type="curve" smooth="yes"/>
      <point x="470" y="233" type="line" smooth="yes"/>
      <point x="470" y="272"/>
      <point x="496" y="303"/>
      <point x="540" y="303" type="curve" smooth="yes"/>
      <point x="586" y="303"/>
      <point x="610" y="272"/>
      <point x="610" y="233" type="curve" smooth="yes"/>
    </contour>
  </outline>
</glyph>
<glyph name="plus" format="1">
  <advance width="615"/>
  <unicode hex="002B"/>
  <outline>
    <contour>
      <point x="336" y="511" type="line"/>
      <point x="278" y="511" type="line"/>
      <point x="278" y="284" type="line"/>
      <point x="51" y="284" type="line"/>
      <point x="51" y="226" type="line"/>
      <point x="278" y="226" type="line"/>
      <point x="278" y="0" type="line"/>
      <point x="336" y="0" type="line"/>
      <point x="336" y="226" type="line"/>
      <point x="563" y="226" type="line"/>
      <point x="563" y="284" type="line"/>
      <point x="336" y="284" type="line"/>
    </contour>
  </outline>
</glyph>
<glyph name="two" format="1">
  <advance width="615"/>
  <unicode hex="0032"/>
  <outline>
    <contour>
      <point x="70" y="0" type="line"/>
      <point x="524" y="0" type="line"/>
      <point x="524" y="48" type="line"/>
      <point x="129" y="48" type="line"/>
      <point x="129" y="51"/>
      <point x="126" y="104"/>
      <point x="188" y="144" type="curve" smooth="yes"/>
      <point x="400" y="281" type="line" smooth="yes"/>
      <point x="461" y="320"/>
      <point x="520" y="378"/>
      <point x="520" y="484" type="curve" smooth="yes"/>
      <point x="520" y="603"/>
      <point x="436" y="696"/>
      <point x="302" y="696" type="curve" smooth="yes"/>
      <point x="175" y="696"/>
      <point x="78" y="606"/>
      <point x="78" y="472" type="curve" smooth="yes"/>
      <point x="78" y="466"/>
      <point x="78" y="464"/>
      <point x="79" y="454" type="curve"/>
      <point x="133" y="454" type="line"/>
      <point x="132" y="462"/>
      <point x="132" y="467"/>
      <point x="132" y="478" type="curve" smooth="yes"/>
      <point x="132" y="574"/>
      <point x="206" y="648"/>
      <point x="302" y="648" type="curve" smooth="yes"/>
      <point x="406" y="648"/>
      <point x="466" y="577"/>
      <point x="466" y="481" type="curve" smooth="yes"/>
      <point x="466" y="406"/>
      <point x="420" y="356"/>
      <point x="375" y="327" type="curve" smooth="yes"/>
      <point x="173" y="196" type="line" smooth="yes"/>
      <point x="105" y="152"/>
      <point x="70" y="110"/>
      <point x="70" y="23" type="curve" smooth="yes"/>
    </contour>
  </outline>
</glyph>
<glyph name="less" format="1">
  <advance width="615"/>
  <unicode hex="003C"/>
  <outline>
    <contour>
      <point x="44" y="210" type="line"/>
      <point x="553" y="13" type="line"/>
      <point x="553" y="75" type="line"/>
      <point x="91" y="254" type="line"/>
      <point x="553" y="433" type="line"/>
      <point x="553" y="495" type="line"/>
      <point x="44" y="298" type="line"/>
    </contour>
  </outline>
</glyph>
<glyph name="greater" format="1">
  <advance width="615"/>
  <unicode hex="003E"/>
  <outline>
    <contour>
      <point x="571" y="298" type="line"/>
      <point x="62" y="495" type="line"/>
      <point x="62" y="433" type="line"/>
      <point x="524" y="254" type="line"/>
      <point x="62" y="75" type="line"/>
      <point x="62" y="13" type="line"/>
      <point x="571" y="210" type="line"/>
    </contour>
  </outline>
</glyph>
<glyph name="B" format="1">
  <advance width="651"/>
  <unicode hex="0042"/>
  <outline>
    <contour>
      <point x="92" y="0" type="line"/>
      <point x="372" y="0" type="line" smooth="yes"/>
      <point x="477" y="0"/>
      <point x="562" y="82"/>
      <point x="562" y="183" type="curve" smooth="yes"/>
      <point x="562" y="317"/>
      <point x="461" y="348"/>
      <point x="425" y="353" type="curve"/>
      <point x="425" y="359" type="line"/>
      <point x="478" y="372"/>
      <point x="546" y="416"/>
      <point x="546" y="518" type="curve" smooth="yes"/>
      <point x="546" y="611"/>
      <point x="465" y="686"/>
      <point x="366" y="686" type="curve" smooth="yes"/>
      <point x="92" y="686" type="line"/>
    </contour>
    <contour>
      <point x="146" y="374" type="line"/>
      <point x="146" y="638" type="line"/>
      <point x="356" y="638" type="line" smooth="yes"/>
      <point x="431" y="638"/>
      <point x="491" y="581"/>
      <point x="491" y="506" type="curve" smooth="yes"/>
      <point x="491" y="431"/>
      <point x="431" y="374"/>
      <point x="356" y="374" type="curve" smooth="yes"/>
    </contour>
    <contour>
      <point x="146" y="48" type="line"/>
      <point x="146" y="326" type="line"/>
      <point x="366" y="326" type="line" smooth="yes"/>
      <point x="444" y="326"/>
      <point x="508" y="264"/>
      <point x="508" y="186" type="curve" smooth="yes"/>
      <point x="508" y="108"/>
      <point x="444" y="48"/>
      <point x="366" y="48" type="curve" smooth="yes"/>
    </contour>
  </outline>
</glyph>
<glyph name="E" format="1">
  <advance width="593"/>
  <unicode hex="0045"/>
  <outline>
    <contour>
      <point x="526" y="0" type="line"/>
      <point x="515" y="48" type="line"/>
      <point x="146" y="48" type="line"/>
      <point x="146" y="326" type="line"/>
      <point x="465" y="326" type="line"/>
      <point x="465" y="374" type="line"/>
      <point x="146" y="374" type="line"/>
      <point x="146" y="638" type="line"/>
      <point x="506" y="638" type="line"/>
      <point x="516" y="686" type="line"/>
      <point x="92" y="686" type="line"/>
      <point x="92" y="0" type="line"/>
    </contour>
    <contour>
      <point x="514" y="10" type="move" name="ogonek"/>
    </contour>
    <contour>
      <point x="297" y="0" type="move" name="bottom"/>
    </contour>
    <contour>
      <point x="297" y="686" type="move" name="top"/>
    </contour>
  </outline>
</glyph>
<glyph name="H" format="1">
  <advance width="693"/>
  <unicode hex="0048"/>
  <outline>
    <contour>
      <point x="571" y="0" type="line"/>
      <point x="571" y="686" type="line"/>
      <point x="517" y="686" type="line"/>
      <point x="517" y="374" type="line"/>
      <point x="146" y="374" type="line"/>
      <point x="146" y="686" type="line"/>
      <point x="92" y="686" type="line"/>
      <point x="92" y="0" type="line"/>
      <point x="146" y="0" type="line"/>
      <point x="146" y="326" type="line"/>
      <point x="517" y="326" type="line"/>
      <point x="517" y="0" type="line"/>
    </contour>
    <contour>
      <point x="332" y="343" type="move" name="center"/>
    </contour>
    <contour>
      <point x="332" y="686" type="move" name="top"/>
    </contour>
  </outline>
</glyph>
<glyph name="J" format="1">
  <advance width="526"/>
  <unicode hex="004A"/>
  <outline>
    <contour>
      <point x="29" y="166" type="line" smooth="yes"/>
      <point x="29" y="50"/>
      <point x="111" y="-10"/>
      <point x="218" y="-10" type="curve" smooth="yes"/>
      <point x="325" y="-10"/>
      <point x="411" y="50"/>
      <point x="411" y="166" type="curve" smooth="yes"/>
      <point x="411" y="686" type="line"/>
      <point x="357" y="686" type="line"/>
      <point x="357" y="172" type="line" smooth="yes"/>
      <point x="357" y="78"/>
      <point x="295" y="38"/>
      <point x="218" y="38" type="curve" smooth="yes"/>
      <point x="141" y="38"/>
      <point x="79" y="77"/>
      <point x="79" y="172" type="curve" smooth="yes"/>
      <point x="79" y="185" type="line"/>
      <point x="29" y="185" type="line"/>
    </contour>
    <contour>
      <point x="373" y="686" type="move" name="top"/>
    </contour>
  </outline>
</glyph>
<glyph name="Z" format="1">
  <advance width="596"/>
  <unicode hex="005A"/>
  <outline>
    <contour>
      <point x="535" y="0" type="line"/>
      <point x="535" y="48" type="line"/>
      <point x="113" y="48" type="line"/>
      <point x="527" y="662" type="line"/>
      <point x="527" y="686" type="line"/>
      <point x="56" y="686" type="line"/>
      <point x="56" y="638" type="line"/>
      <point x="445" y="638" type="line"/>
      <point x="32" y="25" type="line"/>
      <point x="32" y="0" type="line"/>
    </contour>
    <contour>
      <point x="298" y="686" type="move" name="top"/>
    </contour>
  </outline>
</glyph>
<glyph name="bracketright" format="1">
  <advance width="293"/>
  <unicode hex="005D"/>
  <outline>
    <contour>
      <point x="180" y="-161" type="line"/>
      <point x="180" y="686" type="line"/>
      <point x="39" y="686" type="line"/>
      <point x="39" y="648" type="line"/>
      <point x="127" y="648" type="line"/>
      <point x="127" y="-123" type="line"/>
      <point x="39" y="-123" type="line"/>
      <point x="39" y="-161" type="line"/>
    </contour>
  </outline>
</glyph>
<glyph name="asciicircum" format="1">
  <advance width="596"/>
  <unicode hex="005E"/>
  <outline>
    <contour>
      <point x="246" y="511" type="line"/>
      <point x="49" y="0" type="line"/>
      <point x="111" y="0" type="line"/>
      <point x="290" y="464" type="line"/>
      <point x="469" y="0" type="line"/>
      <point x="531" y="0" type="line"/>
      <point x="334" y="511" type="line"/>
    </contour>
  </outline>
</glyph>
<glyph name="underscore" format="1">
  <advance width="694"/>
  <unicode hex="005F"/>
  <outline>
    <contour>
      <point x="597" y="-122" type="line"/>
      <point x="597" y="-64" type="line"/>
      <point x="97" y="-64" type="line"/>
      <point x="97" y="-122" type="line"/>
    </contour>
  </outline>
</glyph>
<glyph name="a" format="1">
  <advance width="585"/>
  <unicode hex="0061"/>
  <outline>
    <contour>
      <point x="396" y="216" type="line" smooth="yes"/>
      <point x="396" y="92"/>
      <point x="305" y="36"/>
      <point x="219" y="36" type="curve" smooth="yes"/>
      <point x="134" y="36"/>
      <point x="99" y="66"/>
      <point x="99" y="132" type="curve" smooth="yes"/>
      <point x="99" y="243"/>
      <point x="216" y="250"/>
      <point x="396" y="250" type="curve"/>
    </contour>
    <contour>
      <point x="447" y="370" type="line" smooth="yes"/>
      <point x="447" y="473"/>
      <point x="387" y="521"/>
      <point x="263" y="521" type="curve" smooth="yes"/>
      <point x="153" y="521"/>
      <point x="66" y="471"/>
      <point x="66" y="381" type="curve" smooth="yes"/>
      <point x="66" y="372"/>
      <point x="67" y="363"/>
      <point x="68" y="355" type="curve"/>
      <point x="117" y="355" type="line"/>
      <point x="117" y="371" type="line" smooth="yes"/>
      <point x="117" y="446"/>
      <point x="181" y="475"/>
      <point x="263" y="475" type="curve" smooth="yes"/>
      <point x="358" y="475"/>
      <point x="396" y="447"/>
      <point x="396" y="360" type="curve" smooth="yes"/>
      <point x="396" y="296" type="line"/>
      <point x="194" y="296"/>
      <point x="48" y="282"/>
      <point x="48" y="133" type="curve" smooth="yes"/>
      <point x="48" y="20"/>
      <point x="127" y="-10"/>
      <point x="209" y="-10" type="curve" smooth="yes"/>
      <point x="291" y="-10"/>
      <point x="354" y="19"/>
      <point x="396" y="89" type="curve"/>
      <point x="396" y="34"/>
      <point x="409" y="-10"/>
      <point x="460" y="-10" type="curve" smooth="yes"/>
      <point x="484" y="-10"/>
      <point x="506" y="-3"/>
      <point x="524" y="9" type="curve"/>
      <point x="524" y="52" type="line"/>
      <point x="509" y="43"/>
      <point x="489" y="36"/>
      <point x="474" y="36" type="curve" smooth="yes"/>
      <point x="459" y="36"/>
      <point x="447" y="45"/>
      <point x="447" y="69" type="curve" smooth="yes"/>
    </contour>
    <contour>
      <point x="526" y="10" type="move" name="ogonek"/>
    </contour>
    <contour>
      <point x="263" y="511" type="move" name="top"/>
    </contour>
  </outline>
</glyph>
<glyph name="f" format="1">
  <advance width="338"/>
  <unicode hex="0066"/>
  <outline>
    <contour>
      <point x="273" y="711" type="line"/>
      <point x="256" y="721"/>
      <point x="230" y="728"/>
      <point x="205" y="728" type="curve" smooth="yes"/>
      <point x="146" y="728"/>
      <point x="103" y="694"/>
      <point x="103" y="617" type="curve" smooth="yes"/>
      <point x="103" y="511" type="line"/>
      <point x="47" y="511" type="line"/>
      <point x="47" y="465" type="line"/>
      <point x="103" y="465" type="line"/>
      <point x="103" y="0" type="line"/>
      <point x="154" y="0" type="line"/>
      <point x="154" y="465" type="line"/>
      <point x="273" y="465" type="line"/>
      <point x="273" y="511" type="line"/>
      <point x="154" y="511" type="line"/>
      <point x="154" y="615" type="line" smooth="yes"/>
      <point x="154" y="674"/>
      <point x="183" y="682"/>
      <point x="211" y="682" type="curve" smooth="yes"/>
      <point x="226" y="682"/>
      <point x="257" y="673"/>
      <point x="273" y="666" type="curve"/>
    </contour>
  </outline>
</glyph>
<glyph name="m" format="1">
  <advance width="867"/>
  <unicode hex="006D"/>
  <outline>
    <contour>
      <point x="510" y="521"/>
      <point x="455" y="479"/>
      <point x="428" y="434" type="curve"/>
      <point x="398" y="493"/>
      <point x="340" y="521"/>
      <point x="274" y="521" type="curve" smooth="yes"/>
      <point x="214" y="521"/>
      <point x="159" y="489"/>
      <point x="129" y="435" type="curve"/>
      <point x="117" y="511" type="line"/>
      <point x="83" y="511" type="line"/>
      <point x="83" y="0" type="line"/>
      <point x="134" y="0" type="line"/>
      <point x="134" y="314" type="line" smooth="yes"/>
      <point x="134" y="406"/>
      <point x="190" y="475"/>
      <point x="270" y="475" type="curve" smooth="yes"/>
      <point x="351" y="475"/>
      <point x="395" y="425"/>
      <point x="395" y="314" type="curve" smooth="yes"/>
      <point x="395" y="0" type="line"/>
      <point x="446" y="0" type="line"/>
      <point x="446" y="314" type="line" smooth="yes"/>
      <point x="446" y="406"/>
      <point x="502" y="475"/>
      <point x="582" y="475" type="curve" smooth="yes"/>
      <point x="663" y="475"/>
      <point x="707" y="425"/>
      <point x="707" y="314" type="curve" smooth="yes"/>
      <point x="707" y="0" type="line"/>
      <point x="758" y="0" type="line"/>
      <point x="758" y="329" type="line" smooth="yes"/>
      <point x="758" y="462"/>
      <point x="681" y="521"/>
      <point x="586" y="521" type="curve" smooth="yes"/>
    </contour>
  </outline>
</glyph>
<glyph name="t" format="1">
  <advance width="346"/>
  <unicode hex="0074"/>
  <outline>
    <contour>
      <point x="269" y="52" type="line"/>
      <point x="253" y="45"/>
      <point x="222" y="36"/>
      <point x="207" y="36" type="curve" smooth="yes"/>
      <point x="179" y="36"/>
      <point x="150" y="44"/>
      <point x="150" y="103" type="curve" smooth="yes"/>
      <point x="150" y="465" type="line"/>
      <point x="269" y="465" type="line"/>
      <point x="269" y="511" type="line"/>
      <point x="150" y="511" type="line"/>
      <point x="150" y="674" type="line"/>
      <point x="117" y="674" type="line"/>
      <point x="99" y="511" type="line"/>
      <point x="43" y="511" type="line"/>
      <point x="43" y="465" type="line"/>
      <point x="99" y="465" type="line"/>
      <point x="99" y="101" type="line" smooth="yes"/>
      <point x="99" y="24"/>
      <point x="142" y="-10"/>
      <point x="201" y="-10" type="curve" smooth="yes"/>
      <point x="226" y="-10"/>
      <point x="252" y="-3"/>
      <point x="269" y="7" type="curve"/>
    </contour>
    <contour>
      <point x="125" y="256" type="move" name="center"/>
    </contour>
    <contour>
      <point x="173" y="0" type="move" name="bottom"/>
    </contour>
    <contour>
      <point x="333" y="686" type="move" name="topright"/>
    </contour>
  </outline>
</glyph>
<glyph name="braceright" format="1">
  <advance width="315"/>
  <unicode hex="007D"/>
  <outline>
    <contour>
      <point x="209" y="259" type="line"/>
      <point x="142" y="259"/>
      <point x="128" y="221"/>
      <point x="126" y="156" type="curve" smooth="yes"/>
      <point x="119" y="-62" type="line" smooth="yes"/>
      <point x="118" y="-108"/>
      <point x="68" y="-121"/>
      <point x="40" y="-121" type="curve"/>
      <point x="40" y="-159" type="line"/>
      <point x="98" y="-159"/>
      <point x="172" y="-132"/>
      <point x="172" y="-47" type="curve" smooth="yes"/>
      <point x="172" y="167" type="line" smooth="yes"/>
      <point x="172" y="208"/>
      <point x="213" y="225"/>
      <point x="249" y="224" type="curve"/>
      <point x="249" y="303" type="line"/>
      <point x="213" y="302"/>
      <point x="172" y="319"/>
      <point x="172" y="360" type="curve" smooth="yes"/>
      <point x="172" y="574" type="line" smooth="yes"/>
      <point x="172" y="659"/>
      <point x="98" y="686"/>
      <point x="40" y="686" type="curve"/>
      <point x="40" y="648" type="line"/>
      <point x="68" y="648"/>
      <point x="118" y="635"/>
      <point x="119" y="589" type="curve" smooth="yes"/>
      <point x="126" y="371" type="line" smooth="yes"/>
      <point x="128" y="306"/>
      <point x="142" y="268"/>
      <point x="209" y="268" type="curve"/>
    </contour>
  </outline>
</glyph>
<glyph name="asciitilde" format="1">
  <advance width="689"/>
  <unicode hex="007E"/>
  <outline>
    <contour>
      <point x="628" y="374" type="line"/>
      <point x="628" y="374"/>
      <point x="560" y="296"/>
      <point x="465" y="296" type="curve" smooth="yes"/>
      <point x="377" y="296"/>
      <point x="312" y="362"/>
      <point x="227" y="362" type="curve" smooth="yes"/>
      <point x="132" y="362"/>
      <point x="64" y="284"/>
      <point x="64" y="284" type="curve"/>
      <point x="64" y="224" type="line"/>
      <point x="64" y="224"/>
      <point x="132" y="302"/>
      <point x="227" y="302" type="curve" smooth="yes"/>
      <point x="315" y="302"/>
      <point x="380" y="236"/>
      <point x="465" y="236" type="curve" smooth="yes"/>
      <point x="560" y="236"/>
      <point x="628" y="314"/>
      <point x="628" y="314" type="curve"/>
    </contour>
  </outline>
</glyph>
<glyph name="copyright" format="1">
  <advance width="780"/>
  <unicode hex="00A9"/>
  <outline>
    <contour>
      <point x="517" y="394" type="line"/>
      <point x="553" y="394" type="line"/>
      <point x="553" y="509"/>
      <point x="482" y="558"/>
      <point x="394" y="558" type="curve" smooth="yes"/>
      <point x="304" y="558"/>
      <point x="231" y="510"/>
      <point x="231" y="393" type="curve" smooth="yes"/>
      <point x="231" y="294" type="line" smooth="yes"/>
      <point x="231" y="176"/>
      <point x="304" y="129"/>
      <point x="394" y="129" type="curve" smooth="yes"/>
      <point x="482" y="129"/>
      <point x="553" y="177"/>
      <point x="553" y="292" type="curve"/>
      <point x="518" y="292" type="line"/>
      <point x="518" y="207"/>
      <point x="466" y="165"/>
      <point x="394" y="165" type="curve" smooth="yes"/>
      <point x="326" y="165"/>
      <point x="271" y="202"/>
      <point x="271" y="287" type="curve" smooth="yes"/>
      <point x="271" y="401" type="line" smooth="yes"/>
      <point x="271" y="484"/>
      <point x="326" y="522"/>
      <point x="394" y="522" type="curve" smooth="yes"/>
      <point x="461" y="522"/>
      <point x="517" y="484"/>
      <point x="517" y="401" type="curve" smooth="yes"/>
    </contour>
    <contour>
      <point x="744" y="539"/>
      <point x="585" y="696"/>
      <point x="390" y="696" type="curve" smooth="yes"/>
      <point x="194" y="696"/>
      <point x="36" y="539"/>
      <point x="36" y="344" type="curve" smooth="yes"/>
      <point x="36" y="147"/>
      <point x="194" y="-10"/>
      <point x="390" y="-10" type="curve" smooth="yes"/>
      <point x="585" y="-10"/>
      <point x="744" y="147"/>
      <point x="744" y="344" type="curve" smooth="yes"/>
    </contour>
    <contour>
      <point x="718" y="162"/>
      <point x="570" y="16"/>
      <point x="390" y="16" type="curve" smooth="yes"/>
      <point x="209" y="16"/>
      <point x="62" y="162"/>
      <point x="62" y="344" type="curve" smooth="yes"/>
      <point x="62" y="524"/>
      <point x="209" y="670"/>
      <point x="390" y="670" type="curve" smooth="yes"/>
      <point x="570" y="670"/>
      <point x="718" y="524"/>
      <point x="718" y="344" type="curve" smooth="yes"/>
    </contour>
  </outline>
</glyph>
<glyph name="logicalnot" format="1">
  <advance width="617"/>
  <unicode hex="00AC"/>
  <outline>
    <contour>
      <point x="549" y="435" type="line"/>
      <point x="37" y="435" type="line"/>
      <point x="37" y="376" type="line"/>
      <point x="491" y="376" type="line"/>
      <point x="491" y="184" type="line"/>
      <point x="549" y="184" type="line"/>
    </contour>
  </outline>
</glyph>
<glyph name="plusminus" format="1">
  <advance width="615"/>
  <unicode hex="00B1"/>
  <outline>
    <contour>
      <point x="557" y="0" type="line"/>
      <point x="557" y="58" type="line"/>
      <point x="57" y="58" type="line"/>
      <point x="57" y="0" type="line"/>
    </contour>
    <contour>
      <point x="336" y="511" type="line"/>
      <point x="278" y="511" type="line"/>
      <point x="278" y="344" type="line"/>
      <point x="51" y="344" type="line"/>
      <point x="51" y="286" type="line"/>
      <point x="278" y="286" type="line"/>
      <point x="278" y="120" type="line"/>
      <point x="336" y="120" type="line"/>
      <point x="336" y="286" type="line"/>
      <point x="563" y="286" type="line"/>
      <point x="563" y="344" type="line"/>
      <point x="336" y="344" type="line"/>
    </contour>
  </outline>
</glyph>
<glyph name="uni00B3" format="1">
  <advance width="363"/>
  <unicode hex="00B3"/>
  <outline>
    <contour>
      <point x="82" y="536" type="line"/>
      <point x="42" y="536" type="line"/>
      <point x="42" y="521" type="line" smooth="yes"/>
      <point x="42" y="455"/>
      <point x="96" y="413"/>
      <point x="170" y="413" type="curve" smooth="yes"/>
      <point x="239" y="413"/>
      <point x="298" y="453"/>
      <point x="298" y="521" type="curve" smooth="yes"/>
      <point x="298" y="568"/>
      <point x="273" y="599"/>
      <point x="239" y="614" type="curve"/>
      <point x="270" y="632"/>
      <point x="291" y="650"/>
      <point x="291" y="696" type="curve" smooth="yes"/>
      <point x="291" y="765"/>
      <point x="236" y="801"/>
      <point x="170" y="801" type="curve" smooth="yes"/>
      <point x="103" y="801"/>
      <point x="50" y="763"/>
      <point x="50" y="696" type="curve" smooth="yes"/>
      <point x="50" y="683" type="line"/>
      <point x="90" y="683" type="line"/>
      <point x="90" y="696" type="line" smooth="yes"/>
      <point x="90" y="739"/>
      <point x="124" y="764"/>
      <point x="170" y="764" type="curve" smooth="yes"/>
      <point x="214" y="764"/>
      <point x="250" y="742"/>
      <point x="250" y="696" type="curve" smooth="yes"/>
      <point x="250" y="651"/>
      <point x="212" y="630"/>
      <point x="167" y="630" type="curve" smooth="yes"/>
      <point x="123" y="630" type="line"/>
      <point x="123" y="593" type="line"/>
      <point x="170" y="593" type="line" smooth="yes"/>
      <point x="218" y="593"/>
      <point x="258" y="570"/>
      <point x="258" y="520" type="curve" smooth="yes"/>
      <point x="258" y="474"/>
      <point x="221" y="449"/>
      <point x="170" y="449" type="curve" smooth="yes"/>
      <point x="118" y="449"/>
      <point x="82" y="476"/>
      <point x="82" y="520" type="curve" smooth="yes"/>
    </contour>
  </outline>
</glyph>
<glyph name="cedilla" format="1">
  <advance width="350"/>
  <unicode hex="00B8"/>
  <outline>
    <contour>
      <point x="70" y="-184" type="line"/>
      <point x="94" y="-193"/>
      <point x="123" y="-197"/>
      <point x="148" y="-197" type="curve" smooth="yes"/>
      <point x="194" y="-197"/>
      <point x="266" y="-179"/>
      <point x="266" y="-106" type="curve" smooth="yes"/>
      <point x="266" y="-37"/>
      <point x="214" y="-17"/>
      <point x="160" y="-17" type="curve" smooth="yes"/>
      <point x="160" y="-17"/>
      <point x="143" y="-17"/>
      <point x="135" y="-17" type="curve"/>
      <point x="135" y="-51" type="line"/>
      <point x="157" y="-51" type="line" smooth="yes"/>
      <point x="184" y="-51"/>
      <point x="215" y="-66"/>
      <point x="215" y="-97" type="curve" smooth="yes"/>
      <point x="215" y="-140"/>
      <point x="176" y="-151"/>
      <point x="139" y="-151" type="curve" smooth="yes"/>
      <point x="106" y="-151"/>
      <point x="83" y="-145"/>
      <point x="70" y="-138" type="curve"/>
    </contour>
    <contour>
      <point x="168" y="0" type="move" name="_bottom"/>
    </contour>
  </outline>
</glyph>
<glyph name="Ccedilla" format="1">
  <advance width="663"/>
  <unicode hex="00C7"/>
  <outline>
    <contour>
      <point x="521" y="251" type="line"/>
      <point x="521" y="81"/>
      <point x="425" y="38"/>
      <point x="320" y="38" type="curve" smooth="yes"/>
      <point x="203" y="38"/>
      <point x="116" y="91"/>
      <point x="116" y="318" type="curve" smooth="yes"/>
      <point x="116" y="368" type="line" smooth="yes"/>
      <point x="116" y="595"/>
      <point x="203" y="648"/>
      <point x="320" y="648" type="curve" smooth="yes"/>
      <point x="425" y="648"/>
      <point x="521" y="606"/>
      <point x="521" y="434" type="curve"/>
      <point x="574" y="434" type="line"/>
      <point x="574" y="642"/>
      <point x="452" y="696"/>
      <point x="320" y="696" type="curve" smooth="yes"/>
      <point x="173" y="696"/>
      <point x="62" y="631"/>
      <point x="62" y="356" type="curve" smooth="yes"/>
      <point x="62" y="330" type="line" smooth="yes"/>
      <point x="62" y="55"/>
      <point x="173" y="-10"/>
      <point x="320" y="-10" type="curve" smooth="yes"/>
      <point x="452" y="-10"/>
      <point x="574" y="48"/>
      <point x="574" y="251" type="curve"/>
    </contour>
    <contour>
      <point x="221" y="-184" type="line"/>
      <point x="245" y="-193"/>
      <point x="274" y="-197"/>
      <point x="299" y="-197" type="curve" smooth="yes"/>
      <point x="345" y="-197"/>
      <point x="417" y="-179"/>
      <point x="417" y="-106" type="curve" smooth="yes"/>
      <point x="417" y="-37"/>
      <point x="365" y="-17"/>
      <point x="311" y="-17" type="curve" smooth="yes"/>
      <point x="311" y="-17"/>
      <point x="294" y="-17"/>
      <point x="286" y="-17" type="curve"/>
      <point x="286" y="-51" type="line"/>
      <point x="308" y="-51" type="line" smooth="yes"/>
      <point x="335" y="-51"/>
      <point x="366" y="-66"/>
      <point x="366" y="-97" type="curve" smooth="yes"/>
      <point x="366" y="-140"/>
      <point x="327" y="-151"/>
      <point x="290" y="-151" type="curve" smooth="yes"/>
      <point x="257" y="-151"/>
      <point x="234" y="-145"/>
      <point x="221" y="-138" type="curve"/>
    </contour>
  </outline>
</glyph>
<glyph name="Egrave" format="1">
  <advance width="593"/>
  <unicode hex="00C8"/>
  <outline>
    <contour>
      <point x="526" y="0" type="line"/>
      <point x="515" y="48" type="line"/>
      <point x="146" y="48" type="line"/>
      <point x="146" y="326" type="line"/>
      <point x="465" y="326" type="line"/>
      <point x="465" y="374" type="line"/>
      <point x="146" y="374" type="line"/>
      <point x="146" y="638" type="line"/>
      <point x="506" y="638" type="line"/>
      <point x="516" y="686" type="line"/>
      <point x="92" y="686" type="line"/>
      <point x="92" y="0" type="line"/>
    </contour>
    <contour>
      <point x="345" y="750" type="line"/>
      <point x="249" y="895" type="line"/>
      <point x="184" y="895" type="line"/>
      <point x="184" y="892" type="line"/>
      <point x="295" y="750" type="line"/>
    </contour>
  </outline>
</glyph>
<glyph name="Icircumflex" format="1">
  <advance width="364"/>
  <unicode hex="00CE"/>
  <outline>
    <contour>
      <point x="30" y="637" type="line"/>
      <point x="109" y="637" type="line"/>
      <point x="109" y="49" type="line"/>
      <point x="30" y="49" type="line"/>
      <point x="30" y="0" type="line"/>
      <point x="242" y="0" type="line"/>
      <point x="242" y="49" type="line"/>
      <point x="163" y="49" type="line"/>
      <point x="163" y="637" type="line"/>
      <point x="242" y="637" type="line"/>
      <point x="242" y="686" type="line"/>
      <point x="30" y="686" type="line"/>
    </contour>
    <contour>
      <point x="-27" y="750" type="line"/>
      <point x="33" y="750" type="line"/>
      <point x="136" y="847" type="line"/>
      <point x="239" y="750" type="line"/>
      <point x="299" y="750" type="line"/>
      <point x="165" y="895" type="line"/>
      <point x="107" y="895" type="line"/>
    </contour>
  </outline>
</glyph>
<glyph name="Idieresis" format="1">
  <advance width="364"/>
  <unicode hex="00CF"/>
  <outline>
    <contour>
      <point x="43" y="637" type="line"/>
      <point x="122" y="637" type="line"/>
      <point x="122" y="49" type="line"/>
      <point x="43" y="49" type="line"/>
      <point x="43" y="0" type="line"/>
      <point x="255" y="0" type="line"/>
      <point x="255" y="49" type="line"/>
      <point x="176" y="49" type="line"/>
      <point x="176" y="637" type="line"/>
      <point x="255" y="637" type="line"/>
      <point x="255" y="686" type="line"/>
      <point x="43" y="686" type="line"/>
    </contour>
    <contour>
      <point x="29" y="751" type="line"/>
      <point x="94" y="751" type="line"/>
      <point x="94" y="820" type="line"/>
      <point x="29" y="820" type="line"/>
    </contour>
    <contour>
      <point x="205" y="751" type="line"/>
      <point x="270" y="751" type="line"/>
      <point x="270" y="820" type="line"/>
      <point x="205" y="820" type="line"/>
    </contour>
  </outline>
</glyph>
<glyph name="Otilde" format="1">
  <advance width="690"/>
  <unicode hex="00D5"/>
  <outline>
    <contour>
      <point x="474" y="-10"/>
      <point x="593" y="55"/>
      <point x="593" y="330" type="curve" smooth="yes"/>
      <point x="593" y="356" type="line" smooth="yes"/>
      <point x="593" y="631"/>
      <point x="474" y="696"/>
      <point x="327" y="696" type="curve" smooth="yes"/>
      <point x="180" y="696"/>
      <point x="61" y="631"/>
      <point x="61" y="356" type="curve" smooth="yes"/>
      <point x="61" y="330" type="line" smooth="yes"/>
      <point x="61" y="55"/>
      <point x="180" y="-10"/>
      <point x="327" y="-10" type="curve" smooth="yes"/>
    </contour>
    <contour>
      <point x="210" y="38"/>
      <point x="115" y="91"/>
      <point x="115" y="318" type="curve" smooth="yes"/>
      <point x="115" y="368" type="line" smooth="yes"/>
      <point x="115" y="595"/>
      <point x="210" y="648"/>
      <point x="327" y="648" type="curve" smooth="yes"/>
      <point x="444" y="648"/>
      <point x="539" y="595"/>
      <point x="539" y="368" type="curve" smooth="yes"/>
      <point x="539" y="318" type="line" smooth="yes"/>
      <point x="539" y="91"/>
      <point x="444" y="38"/>
      <point x="327" y="38" type="curve" smooth="yes"/>
    </contour>
    <contour>
      <point x="477" y="833" type="line"/>
      <point x="470" y="810"/>
      <point x="453" y="801"/>
      <point x="420" y="801" type="curve" smooth="yes"/>
      <point x="366" y="801"/>
      <point x="317" y="833"/>
      <point x="253" y="833" type="curve" smooth="yes"/>
      <point x="175" y="833"/>
      <point x="152" y="783"/>
      <point x="152" y="751" type="curve"/>
      <point x="189" y="751" type="line"/>
      <point x="196" y="774"/>
      <point x="213" y="783"/>
      <point x="246" y="783" type="curve" smooth="yes"/>
      <point x="300" y="783"/>
      <point x="349" y="751"/>
      <point x="413" y="751" type="curve" smooth="yes"/>
      <point x="492" y="751"/>
      <point x="514" y="801"/>
      <point x="514" y="833" type="curve"/>
    </contour>
  </outline>
</glyph>
<glyph name="Uacute" format="1">
  <advance width="680"/>
  <unicode hex="00DA"/>
  <outline>
    <contour>
      <point x="509" y="686" type="line"/>
      <point x="509" y="222" type="line" smooth="yes"/>
      <point x="509" y="114"/>
      <point x="443" y="38"/>
      <point x="324" y="38" type="curve" smooth="yes"/>
      <point x="206" y="38"/>
      <point x="140" y="111"/>
      <point x="140" y="222" type="curve" smooth="yes"/>
      <point x="140" y="686" type="line"/>
      <point x="86" y="686" type="line" smooth="yes"/>
      <point x="86" y="686"/>
      <point x="86" y="221"/>
      <point x="86" y="220" type="curve" smooth="yes"/>
      <point x="86" y="81"/>
      <point x="180" y="-10"/>
      <point x="324" y="-10" type="curve" smooth="yes"/>
      <point x="468" y="-10"/>
      <point x="563" y="81"/>
      <point x="563" y="220" type="curve" smooth="yes"/>
      <point x="563" y="221"/>
      <point x="563" y="686"/>
      <point x="563" y="686" type="curve" smooth="yes"/>
    </contour>
    <contour>
      <point x="348" y="750" type="line"/>
      <point x="459" y="892" type="line"/>
      <point x="459" y="895" type="line"/>
      <point x="394" y="895" type="line"/>
      <point x="298" y="750" type="line"/>
    </contour>
  </outline>
</glyph>
<glyph name="aring" format="1">
  <advance width="585"/>
  <unicode hex="00E5"/>
  <outline>
    <contour>
      <point x="396" y="216" type="line" smooth="yes"/>
      <point x="396" y="92"/>
      <point x="305" y="36"/>
      <point x="219" y="36" type="curve" smooth="yes"/>
      <point x="134" y="36"/>
      <point x="99" y="66"/>
      <point x="99" y="132" type="curve" smooth="yes"/>
      <point x="99" y="243"/>
      <point x="216" y="250"/>
      <point x="396" y="250" type="curve"/>
    </contour>
    <contour>
      <point x="447" y="370" type="line" smooth="yes"/>
      <point x="447" y="473"/>
      <point x="387" y="521"/>
      <point x="263" y="521" type="curve" smooth="yes"/>
      <point x="153" y="521"/>
      <point x="66" y="471"/>
      <point x="66" y="381" type="curve" smooth="yes"/>
      <point x="66" y="372"/>
      <point x="67" y="363"/>
      <point x="68" y="355" type="curve"/>
      <point x="117" y="355" type="line"/>
      <point x="117" y="371" type="line" smooth="yes"/>
      <point x="117" y="446"/>
      <point x="181" y="475"/>
      <point x="263" y="475" type="curve" smooth="yes"/>
      <point x="358" y="475"/>
      <point x="396" y="447"/>
      <point x="396" y="360" type="curve" smooth="yes"/>
      <point x="396" y="296" type="line"/>
      <point x="194" y="296"/>
      <point x="48" y="282"/>
      <point x="48" y="133" type="curve" smooth="yes"/>
      <point x="48" y="20"/>
      <point x="127" y="-10"/>
      <point x="209" y="-10" type="curve" smooth="yes"/>
      <point x="291" y="-10"/>
      <point x="354" y="19"/>
      <point x="396" y="89" type="curve"/>
      <point x="396" y="34"/>
      <point x="409" y="-10"/>
      <point x="460" y="-10" type="curve" smooth="yes"/>
      <point x="484" y="-10"/>
      <point x="506" y="-3"/>
      <point x="524" y="9" type="curve"/>
      <point x="524" y="52" type="line"/>
      <point x="509" y="43"/>
      <point x="489" y="36"/>
      <point x="474" y="36" type="curve" smooth="yes"/>
      <point x="459" y="36"/>
      <point x="447" y="45"/>
      <point x="447" y="69" type="curve" smooth="yes"/>
    </contour>
    <contour>
      <point x="365" y="712"/>
      <point x="319" y="756"/>
      <point x="264" y="756" type="curve" smooth="yes"/>
      <point x="208" y="756"/>
      <point x="163" y="711"/>
      <point x="163" y="655" type="curve" smooth="yes"/>
      <point x="163" y="599"/>
      <point x="209" y="555"/>
      <point x="264" y="555" type="curve" smooth="yes"/>
      <point x="320" y="555"/>
      <point x="365" y="600"/>
      <point x="365" y="655" type="curve" smooth="yes"/>
    </contour>
    <contour>
      <point x="329" y="620"/>
      <point x="300" y="591"/>
      <point x="264" y="591" type="curve" smooth="yes"/>
      <point x="229" y="591"/>
      <point x="199" y="619"/>
      <point x="199" y="655" type="curve" smooth="yes"/>
      <point x="199" y="691"/>
      <point x="228" y="720"/>
      <point x="264" y="720" type="curve" smooth="yes"/>
      <point x="299" y="720"/>
      <point x="329" y="692"/>
      <point x="329" y="655" type="curve" smooth="yes"/>
    </contour>
  </outline>
</glyph>
<glyph name="egrave" format="1">
  <advance width="556"/>
  <unicode hex="00E8"/>
  <outline>
    <contour>
      <point x="414" y="189" type="line"/>
      <point x="414" y="84"/>
      <point x="344" y="36"/>
      <point x="265" y="36" type="curve" smooth="yes"/>
      <point x="173" y="36"/>
      <point x="102" y="103"/>
      <point x="102" y="242" type="curve" smooth="yes"/>
      <point x="102" y="250" type="line"/>
      <point x="464" y="250" type="line"/>
      <point x="464" y="314" type="line" smooth="yes"/>
      <point x="464" y="447"/>
      <point x="376" y="521"/>
      <point x="264" y="521" type="curve" smooth="yes"/>
      <point x="138" y="521"/>
      <point x="51" y="428"/>
      <point x="51" y="263" type="curve" smooth="yes"/>
      <point x="51" y="248" type="line" smooth="yes"/>
      <point x="51" y="83"/>
      <point x="139" y="-10"/>
      <point x="265" y="-10" type="curve" smooth="yes"/>
      <point x="375" y="-10"/>
      <point x="464" y="61"/>
      <point x="464" y="189" type="curve"/>
    </contour>
    <contour>
      <point x="346" y="475"/>
      <point x="414" y="423"/>
      <point x="414" y="314" type="curve" smooth="yes"/>
      <point x="414" y="296" type="line"/>
      <point x="103" y="296" type="line"/>
      <point x="111" y="416"/>
      <point x="178" y="475"/>
      <point x="264" y="475" type="curve" smooth="yes"/>
    </contour>
    <contour>
      <point x="295" y="575" type="line"/>
      <point x="199" y="720" type="line"/>
      <point x="134" y="720" type="line"/>
      <point x="134" y="717" type="line"/>
      <point x="245" y="575" type="line"/>
    </contour>
  </outline>
</glyph>
<glyph name="idieresis" format="1">
  <advance width="260"/>
  <unicode hex="00EF"/>
  <outline>
    <contour>
      <point x="157" y="0" type="line"/>
      <point x="157" y="511" type="line"/>
      <point x="106" y="511" type="line"/>
      <point x="106" y="0" type="line"/>
    </contour>
    <contour>
      <point x="11" y="651" type="line"/>
      <point x="76" y="651" type="line"/>
      <point x="76" y="720" type="line"/>
      <point x="11" y="720" type="line"/>
    </contour>
    <contour>
      <point x="187" y="651" type="line"/>
      <point x="252" y="651" type="line"/>
      <point x="252" y="720" type="line"/>
      <point x="187" y="720" type="line"/>
    </contour>
  </outline>
</glyph>
<glyph name="Lslash" format="1">
  <advance width="539"/>
  <unicode hex="0141"/>
  <outline>
    <contour>
      <point x="313" y="479" type="line"/>
      <point x="161" y="402" type="line"/>
      <point x="161" y="686" type="line"/>
      <point x="107" y="686" type="line"/>
      <point x="107" y="375" type="line"/>
      <point x="33" y="338" type="line"/>
      <point x="33" y="294" type="line"/>
      <point x="107" y="331" type="line"/>
      <point x="107" y="0" type="line"/>
      <point x="513" y="0" type="line"/>
      <point x="501" y="48" type="line"/>
      <point x="161" y="48" type="line"/>
      <point x="161" y="358" type="line"/>
      <point x="313" y="435" type="line"/>
    </contour>
  </outline>
</glyph>
<glyph name="circumflex" format="1">
  <advance width="536"/>
  <unicode hex="02C6"/>
  <outline>
    <contour>
      <point x="92" y="575" type="line"/>
      <point x="152" y="575" type="line"/>
      <point x="255" y="672" type="line"/>
      <point x="358" y="575" type="line"/>
      <point x="418" y="575" type="line"/>
      <point x="284" y="720" type="line"/>
      <point x="226" y="720" type="line"/>
    </contour>
    <contour>
      <point x="255" y="511" type="move" name="_top"/>
    </contour>
  </outline>
</glyph>
<glyph name="emdash" format="1">
  <advance width="1058"/>
  <unicode hex="2014"/>
  <outline>
    <contour>
      <point x="982" y="239" type="line"/>
      <point x="982" y="296" type="line"/>
      <point x="72" y="296" type="line"/>
      <point x="72" y="239" type="line"/>
    </contour>
  </outline>
</glyph>
<glyph name="quotedblright" format="1">
  <advance width="361"/>
  <unicode hex="201D"/>
  <outline>
    <contour>
      <point x="96" y="516" type="line"/>
      <point x="126" y="628" type="line"/>
      <point x="126" y="686" type="line"/>
      <point x="61" y="686" type="line"/>
      <point x="61" y="617" type="line"/>
      <point x="85" y="617" type="line"/>
      <point x="85" y="617"/>
      <point x="63" y="516"/>
      <point x="62" y="516" type="curve"/>
    </contour>
    <contour>
      <point x="195" y="516" type="line"/>
      <point x="225" y="628" type="line"/>
      <point x="225" y="686" type="line"/>
      <point x="160" y="686" type="line"/>
      <point x="160" y="617" type="line"/>
      <point x="184" y="617" type="line"/>
      <point x="184" y="617"/>
      <point x="162" y="516"/>
      <point x="161" y="516" type="curve"/>
    </contour>
  </outline>
</glyph>
<glyph name="ellipsis" format="1">
  <advance width="735"/>
  <unicode hex="2026"/>
  <outline>
    <contour>
      <point x="69" y="0" type="line"/>
      <point x="134" y="0" type="line"/>
      <point x="134" y="69" type="line"/>
      <point x="69" y="69" type="line"/>
    </contour>
    <contour>
      <point x="282" y="0" type="line"/>
      <point x="347" y="0" type="line"/>
      <point x="347" y="69" type="line"/>
      <point x="282" y="69" type="line"/>
    </contour>
    <contour>
      <point x="494" y="0" type="line"/>
      <point x="559" y="0" type="line"/>
      <point x="559" y="69" type="line"/>
      <point x="494" y="69" type="line"/>
    </contour>
  </outline>
</glyph>
<glyph name="trademark" format="1">
  <advance width="897"/>
  <unicode hex="2122"/>
  <outline>
    <contour>
      <point x="345" y="648" type="line"/>
      <point x="345" y="686" type="line"/>
      <point x="46" y="686" type="line"/>
      <point x="46" y="648" type="line"/>
      <point x="175" y="648" type="line"/>
      <point x="175" y="289" type="line"/>
      <point x="217" y="289" type="line"/>
      <point x="217" y="648" type="line"/>
    </contour>
    <contour>
      <point x="775" y="289" type="line"/>
      <point x="775" y="686" type="line"/>
      <point x="719" y="686" type="line"/>
      <point x="569" y="346" type="line"/>
      <point x="422" y="686" type="line"/>
      <point x="365" y="686" type="line"/>
      <point x="365" y="289" type="line"/>
      <point x="401" y="289" type="line"/>
      <point x="401" y="623" type="line"/>
      <point x="550" y="289" type="line"/>
      <point x="580" y="289" type="line"/>
      <point x="628" y="398"/>
      <point x="684" y="517"/>
      <point x="732" y="627" type="curve"/>
      <point x="732" y="289" type="line"/>
    </contour>
  </outline>
</glyph>
<glyph name="estimated" format="1">
  <advance width="768"/>
  <unicode hex="212E"/>
  <outline>
    <contour>
      <point x="117" y="150" type="line"/>
      <point x="178" y="70" type="line"/>
      <point x="178" y="599" type="line"/>
      <point x="117" y="519" type="line"/>
    </contour>
    <contour>
      <point x="587" y="599" type="line"/>
      <point x="587" y="337" type="line"/>
      <point x="651" y="337" type="line"/>
      <point x="651" y="519" type="line"/>
    </contour>
    <contour>
      <point x="106" y="316" type="line"/>
      <point x="666" y="316" type="line"/>
      <point x="666" y="364" type="line"/>
      <point x="106" y="364" type="line"/>
    </contour>
    <contour>
      <point x="688" y="316" type="line"/>
      <point x="688" y="368" type="line" smooth="yes"/>
      <point x="688" y="573"/>
      <point x="566" y="696"/>
      <point x="384" y="696" type="curve" smooth="yes"/>
      <point x="202" y="696"/>
      <point x="80" y="573"/>
      <point x="80" y="367" type="curve" smooth="yes"/>
      <point x="80" y="319" type="line" smooth="yes"/>
      <point x="80" y="113"/>
      <point x="207" y="-10"/>
      <point x="392" y="-10" type="curve" smooth="yes"/>
      <point x="499" y="-10"/>
      <point x="584" y="31"/>
      <point x="639" y="105" type="curve"/>
      <point x="601" y="135" type="line"/>
      <point x="555" y="69"/>
      <point x="483" y="35"/>
      <point x="394" y="35" type="curve" smooth="yes"/>
      <point x="240" y="35"/>
      <point x="130" y="137"/>
      <point x="130" y="319" type="curve" smooth="yes"/>
      <point x="130" y="367" type="line" smooth="yes"/>
      <point x="130" y="549"/>
      <point x="233" y="651"/>
      <point x="385" y="651" type="curve" smooth="yes"/>
      <point x="537" y="651"/>
      <point x="638" y="549"/>
      <point x="638" y="366" type="curve" smooth="yes"/>
      <point x="638" y="316" type="line"/>
    </contour>
  </outline>
</glyph>
<glyph name="greaterequal" format="1">
  <advance width="615"/>
  <unicode hex="2265"/>
  <outline>
    <contour>
      <point x="565" y="344" type="line"/>
      <point x="56" y="521" type="line"/>
      <point x="56" y="459" type="line"/>
      <point x="518" y="300" type="line"/>
      <point x="56" y="141" type="line"/>
      <point x="56" y="79" type="line"/>
      <point x="565" y="256" type="line"/>
    </contour>
    <contour>
      <point x="566" y="57" type="line"/>
      <point x="56" y="57" type="line"/>
      <point x="56" y="0" type="line"/>
      <point x="566" y="0" type="line"/>
    </contour>
  </outline>
</glyph>
